<mxfile host="app.diagrams.net" modified="2023-08-25T15:34:09.089Z" agent="Mozilla/5.0 (Windows NT 10.0; Win64; x64) AppleWebKit/537.36 (KHTML, like Gecko) Chrome/116.0.0.0 Safari/537.36" version="21.5.2" etag="L-q_9-vwbPlYOJcDdUYX" type="github">
  <diagram name="Page-1" id="UsAYCT-MOmfcocP8UOKd">
    <mxGraphModel>
      <root>
        <mxCell id="0" />
        <mxCell id="1" parent="0" />
      </root>
    </mxGraphModel>
  </diagram>
</mxfile>
